<svg width="547" height="488" viewBox="0 0 547 488" fill="none" xmlns="http://www.w3.org/2000/svg">
<path d="M522.886 315.187L415.766 190.333C405.526 178.734 388.484 177.374 377.552 186.921C370.724 193.057 368.005 201.937 368.672 210.119L363.901 204.65C354.354 193.051 336.62 191.691 325.021 201.931C317.527 208.066 314.782 217.614 316.141 226.494C305.901 217.613 290.886 216.947 280.672 225.801C273.844 231.936 271.125 240.118 271.791 248.998L263.604 239.451C264.297 238.092 263.604 236.733 262.245 236.04H260.885L190.62 154.176C181.073 142.577 163.339 141.218 151.74 151.457C140.141 161.004 139.448 178.738 149.021 190.337L307.981 375.91L222.7 352.713C211.794 349.994 200.861 352.713 192.673 359.541C187.204 363.645 183.793 369.781 182.434 375.916C177.663 392.984 187.204 411.385 204.272 416.848L372.112 467.327C377.581 468.686 382.352 471.431 388.487 474.821C426.008 495.3 473.768 489.837 507.872 460.504C552.222 423.009 559.044 357.488 522.888 315.197L522.886 315.187ZM191.312 298.813C192.005 298.12 192.005 297.453 191.312 296.761L186.542 276.282V275.589L185.849 274.897V274.204C185.156 273.511 184.49 272.844 183.13 273.511C136.729 285.11 88.9688 270.1 57.6088 233.938C12.5674 181.407 18.7288 102.26 71.2594 57.2445C123.79 12.2031 202.937 18.3645 247.953 70.8951C279.338 107.056 286.833 156.868 268.431 201.187C267.739 202.546 268.431 203.906 269.791 204.599L289.577 212.786C290.27 213.479 291.63 212.786 292.296 212.093L292.989 211.401C315.494 158.171 306.64 97.4793 268.426 53.134C213.838 -11.002 116.96 -17.83 53.5196 36.7593C-10.6164 91.3473 -18.1057 188.226 36.4516 251.666C74.6649 296.015 133.326 314.437 189.278 300.093C190.612 300.171 190.612 299.504 191.304 298.811L191.312 298.813ZM209.047 103.693C221.339 118.01 227.474 135.078 226.782 153.505C226.782 154.864 228.141 156.224 229.501 156.224L251.339 156.916C252.032 156.916 252.699 156.916 253.391 156.224C254.084 155.531 254.084 154.864 254.084 154.171C254.777 128.917 245.897 105.051 229.521 85.9581C193.36 43.6661 129.229 38.1981 86.9347 75.0518C44.6427 111.213 39.1747 175.344 76.0284 218.332C92.4031 237.425 114.908 249.717 139.471 252.436C140.164 252.436 140.83 252.436 141.523 251.743C142.216 251.05 142.883 251.05 142.883 249.691L145.601 227.852C145.601 226.493 144.909 225.134 143.549 225.134C125.815 223.081 108.747 214.227 97.1479 199.879C70.5332 168.493 73.9505 122.087 105.335 94.8108C135.362 68.9148 182.429 72.3055 209.038 103.691L209.047 103.693Z" fill="#C8A545"/>
</svg>
